<?xml version="1.0" encoding="UTF-8" standalone="no"?>
<svg width="72px" height="72px" viewBox="0 0 72 72" version="1.1" xmlns="http://www.w3.org/2000/svg" xmlns:xlink="http://www.w3.org/1999/xlink" xmlns:sketch="http://www.bohemiancoding.com/sketch/ns">
    <!-- Generator: Sketch 3.3.1 (12005) - http://www.bohemiancoding.com/sketch -->
    <title>Oval 3 + Shape</title>
    <desc>Created with Sketch.</desc>
    <defs></defs>
    <g id="02-Services" stroke="none" stroke-width="1" fill="none" fill-rule="evenodd" sketch:type="MSPage">
        <g id="02b-Meteor-Dev" sketch:type="MSArtboardGroup" transform="translate(-788.000000, -2258.000000)">
            <g id="Leadership" sketch:type="MSLayerGroup" transform="translate(130.000000, 1895.000000)">
                <g id="Group" transform="translate(0.000000, 185.000000)" sketch:type="MSShapeGroup">
                    <g id="Boilerplate" transform="translate(659.000000, 170.000000)">
                        <g id="Oval-3-+-Shape" transform="translate(0.000000, 9.000000)">
                            <circle id="Oval-3" stroke="#1D2937" stroke-width="2" fill-opacity="0.149999991" fill="#FFFFFF" cx="35" cy="35" r="35"></circle>
                            <path d="M50.7663268,21.8259951 L48.1626232,19.2699995 C47.8325763,18.9460001 47.2091543,18.9460001 46.8791073,19.2699995 L36.4276209,29.5299818 L26.0128063,19.2699995 C25.6460875,18.9100002 25.0593373,18.9100002 24.7292904,19.2699995 L18.2750391,25.5699886 C17.9083203,25.929988 17.9083203,26.505987 18.2750391,26.8299865 L28.6898537,37.0539688 L19.5952269,46.0539532 C19.4852112,46.1619531 19.4118675,46.2699529 19.3751956,46.4139526 L18.0550078,50.229946 C17.9449922,50.5539455 18.0183359,50.9139448 18.2750391,51.1659444 C18.4583985,51.3099442 18.6784298,51.417944 18.935133,51.417944 C19.0451486,51.417944 19.1184924,51.417944 19.2285081,51.381944 L23.1157276,50.1219462 C23.2624151,50.0859463 23.3724308,50.0139464 23.4824464,49.9059466 L32.6137451,40.9419621 L43.0285597,51.1659444 C43.2119191,51.3459441 43.4319504,51.417944 43.6886536,51.417944 C43.9453567,51.417944 44.165388,51.3459441 44.3487474,51.1659444 L50.7663268,44.8659553 C51.1330457,44.5059559 51.1330457,43.9299569 50.7663268,43.6059575 L40.3148404,33.3459752 L50.729655,23.1219929 C51.0963738,22.7619935 51.0963738,22.1859945 50.7663268,21.8259951 L50.7663268,21.8259951 Z M22.3456181,48.4659491 L20.4020083,49.1139479 L21.0621022,47.2059512 L44.9354976,23.7699918 L46.2190134,25.0299896 L22.3456181,48.4659491 L22.3456181,48.4659491 Z M47.5025293,23.7339918 L46.2190134,22.473994 L47.5025293,21.2139962 L48.7860452,22.473994 L47.5025293,23.7339918 L47.5025293,23.7339918 Z M28.4698224,34.3179735 L29.6433226,33.1659755 C30.0100415,32.8059761 30.0100415,32.2299771 29.6433226,31.9059777 C29.2766038,31.5459783 28.6898537,31.5459783 28.3598068,31.9059777 L27.1863065,33.0579757 L25.7194312,31.6179782 L26.8929315,30.4659802 C27.2596503,30.1059808 27.2596503,29.5299818 26.8929315,29.2059824 C26.5262126,28.845983 25.9394625,28.845983 25.6094156,29.2059824 L24.4359153,30.3579804 L22.9690401,28.9179829 L24.1425403,27.7659848 C24.5092591,27.4059855 24.5092591,26.8299865 24.1425403,26.505987 C23.7758215,26.1459876 23.1890713,26.1459876 22.8590244,26.505987 L21.6855242,27.657985 L20.2186489,26.2179875 L25.3527124,21.1779962 L35.144105,30.7899796 L30.0100415,35.8299709 L28.4698224,34.3179735 L28.4698224,34.3179735 Z M48.8227171,44.2179564 L43.6886536,49.2579477 L42.2217783,47.8179502 L43.3952785,46.6659522 C43.7619973,46.3059528 43.7619973,45.7299538 43.3952785,45.4059544 C43.0285597,45.045955 42.4418096,45.045955 42.1117626,45.4059544 L40.9382624,46.5579524 L39.4713871,45.1179549 L40.6448873,43.9659568 C41.0116062,43.6059575 41.0116062,43.0299585 40.6448873,42.705959 C40.2781685,42.3459596 39.6914184,42.3459596 39.3613714,42.705959 L38.1878712,43.857957 L36.7209959,42.4179595 L37.8944962,41.2659615 C38.261215,40.9059621 38.261215,40.3299631 37.8944962,40.0059637 C37.5277773,39.6459643 36.9410272,39.6459643 36.6109803,40.0059637 L35.43748,41.1579617 L33.897261,39.6459643 L39.0313245,34.605973 L48.8227171,44.2179564 L48.8227171,44.2179564 Z" id="Shape" fill="#DF6823"></path>
                        </g>
                    </g>
                </g>
            </g>
        </g>
    </g>
</svg>