<?xml version="1.0" encoding="UTF-8" standalone="no"?>
<svg width="72px" height="72px" viewBox="0 0 72 72" version="1.1" xmlns="http://www.w3.org/2000/svg" xmlns:xlink="http://www.w3.org/1999/xlink" xmlns:sketch="http://www.bohemiancoding.com/sketch/ns">
    <!-- Generator: Sketch 3.3.1 (12005) - http://www.bohemiancoding.com/sketch -->
    <title>Oval 3 + Shape</title>
    <desc>Created with Sketch.</desc>
    <defs></defs>
    <g id="02-Services" stroke="none" stroke-width="1" fill="none" fill-rule="evenodd" sketch:type="MSPage">
        <g id="02b-Meteor-Dev" sketch:type="MSArtboardGroup" transform="translate(-788.000000, -2081.000000)">
            <g id="Leadership" sketch:type="MSLayerGroup" transform="translate(130.000000, 1895.000000)">
                <g id="Group" transform="translate(0.000000, 185.000000)" sketch:type="MSShapeGroup">
                    <g id="Crater.io" transform="translate(659.000000, 0.000000)">
                        <g id="Oval-3-+-Shape" transform="translate(0.000000, 2.000000)">
                            <circle id="Oval-3" stroke="#1D2937" stroke-width="2" fill-opacity="0.149999991" fill="#FFFFFF" cx="35" cy="35" r="35"></circle>
                            <path d="M42.4997374,28.2006378 L42.4997374,18 L18,18 L18,36.3603827 L28.5002626,36.3603827 L28.5002626,46.5610204 L43.0262605,46.5610204 L48.626313,52 L49.4994748,52 L49.4994748,46.5610204 L53,46.5610204 L53,28.2006378 L42.4997374,28.2006378 L42.4997374,28.2006378 Z M19.3996849,35.0006378 L19.3996849,19.3597449 L41.1000525,19.3597449 L41.1000525,28.2006378 L28.5002626,28.2006378 L28.5002626,35.0006378 L19.3996849,35.0006378 L19.3996849,35.0006378 Z M51.6003151,45.2012756 L48.0997899,45.2012756 L48.0997899,49.5662352 L43.6053046,45.2012756 L29.8986345,45.2012756 L29.8986345,29.5603827 L51.5990021,29.5603827 L51.5990021,45.2012756 L51.6003151,45.2012756 Z" id="Shape" fill="#DF6823"></path>
                        </g>
                    </g>
                </g>
            </g>
        </g>
    </g>
</svg>