<?xml version="1.0" encoding="UTF-8" standalone="no"?>
<svg width="71px" height="72px" viewBox="0 0 71 72" version="1.1" xmlns="http://www.w3.org/2000/svg" xmlns:xlink="http://www.w3.org/1999/xlink" xmlns:sketch="http://www.bohemiancoding.com/sketch/ns">
    <!-- Generator: Sketch 3.3.2 (12043) - http://www.bohemiancoding.com/sketch -->
    <title>Oval 2 + Shape</title>
    <desc>Created with Sketch.</desc>
    <defs></defs>
    <g id="Page-1" stroke="none" stroke-width="1" fill="none" fill-rule="evenodd" sketch:type="MSPage">
        <g id="Oval-2-+-Shape" sketch:type="MSLayerGroup" transform="translate(0.000000, 1.000000)">
            <circle id="Oval-2" stroke="#1D2937" fill-opacity="0.149999991" fill="#FFFFFF" sketch:type="MSShapeGroup" cx="35.5" cy="35.4354194" r="35"></circle>
            <path d="M49.7398198,23.2201527 L47.5044428,23.2201527 L47.5044428,19.1634194 C47.5044428,18.7667527 47.1673772,18.4354194 46.762328,18.4354194 L24.9124919,18.4354194 C21.4904919,18.4354194 21.5000001,21.384286 21.5000001,23.809086 L21.5000001,36.3960194 L21.5000001,48.142486 C21.5000001,49.3208194 21.5351805,50.1566194 22.1608198,51.2598194 C22.81641,52.416686 24.3529346,53.3943527 25.7306723,53.3943527 L48.3207215,53.3943527 L49.7393444,53.3943527 C50.1434428,53.3943527 50.4809838,53.063486 50.4809838,52.6663527 L50.4809838,23.947686 C50.4809838,23.5510194 50.1439182,23.2201527 49.7398198,23.2201527 L49.7398198,23.2201527 Z M48.9977051,51.9388194 L27.7216887,51.9388194 C25.5267215,51.9388194 22.9832788,51.7890194 22.9832788,48.8303527 L22.9832788,38.1264194 L22.9832788,25.3024194 C22.9832788,23.349886 22.2050329,19.8914194 25.1473444,19.8914194 L46.0206887,19.8914194 L46.0206887,23.2201527 L45.1944264,23.2201527 C44.82741,22.402086 44.4603936,21.5840194 44.0933772,20.7659527 C43.9916395,20.5391527 43.6907051,20.405686 43.4520493,20.405686 L33.0947706,20.405686 L27.0023936,20.405686 C25.9911969,20.405686 24.7056887,20.2745527 24.3229838,21.5177527 C23.8247542,23.1352194 25.7753608,24.6761527 27.3275739,24.6761527 L31.0619182,24.6761527 L44.9210657,24.6761527 L48.9977051,24.6761527 L48.9977051,51.9388194 L48.9977051,51.9388194 Z M43.5842133,23.2201527 L28.1376723,23.2201527 L27.2923936,23.2201527 C27.2776559,23.2159527 27.2595903,23.2108194 27.2381969,23.205686 C26.9695903,23.135686 26.7257051,23.0241527 26.4794428,22.9014194 C26.1861149,22.7553527 25.5585739,22.1916194 25.9070493,21.861686 L30.0312297,21.861686 L42.7213444,21.861686 L42.9742624,21.861686 C43.1777379,22.3143527 43.3807379,22.7670194 43.5842133,23.2201527 L43.5842133,23.2201527 Z M25.7977051,21.8612194 C25.6878854,21.8817527 25.6455739,21.8612194 25.7881969,21.8612194 L25.7977051,21.8612194 Z M25.7786885,25.9635694 L25.7786885,49.8181694 C25.7786885,50.5223694 26.8911475,50.5223694 26.8911475,49.8181694 L26.8911475,25.9635694 C26.8911475,25.2593694 25.7786885,25.2593694 25.7786885,25.9635694 Z" id="Shape" fill="#DE6826" sketch:type="MSShapeGroup"></path>
        </g>
    </g>
</svg>