<?xml version="1.0" encoding="UTF-8" standalone="no"?>
<svg width="66px" height="65px" viewBox="0 0 66 65" version="1.1" xmlns="http://www.w3.org/2000/svg" xmlns:xlink="http://www.w3.org/1999/xlink" xmlns:sketch="http://www.bohemiancoding.com/sketch/ns">
    <!-- Generator: Sketch 3.3.2 (12043) - http://www.bohemiancoding.com/sketch -->
    <title>Slice 1</title>
    <desc>Created with Sketch.</desc>
    <defs></defs>
    <g id="Page-1" stroke="none" stroke-width="1" fill="none" fill-rule="evenodd" sketch:type="MSPage">
        <g id="deploy" sketch:type="MSLayerGroup" fill="#1D2937">
            <g id="Page-1" sketch:type="MSShapeGroup">
                <g id="startup" transform="translate(32.726025, 32.279710) rotate(48.000000) translate(-32.726025, -32.279710) translate(14.726025, 5.279710)">
                    <g id="01-Home" transform="translate(1.026331, 0.017224)">
                        <g id="Services" transform="translate(0.000000, 0.000000)">
                            <g id="Group" transform="translate(0.000000, 1.000000)">
                                <g id="Rectangle-15-+-startup-services-+-rocket-2-+-Shape-3-+-Rectangle-16-+-enterprise-services-+-Shape-2-+-Shape-3" transform="translate(1.000000, 0.000000)">
                                    <g id="Rectangle-15-+-startup-services-+-rocket-2-+-Shape-3" transform="translate(0.000000, 0.000000)">
                                        <g id="startup-services-+-rocket-2-+-Shape-3" transform="translate(0.000000, 1.000000)">
                                            <g id="rocket-2" transform="translate(0.000000, 1.000000)">
                                                <path d="M14.988367,12.2670782 C12.8905296,12.2670782 11.240924,14.037037 11.240924,16.291358 C11.240924,18.545679 12.8891244,20.3156379 14.988367,20.3156379 C17.0862044,20.3156379 18.7358101,18.545679 18.7358101,16.291358 C18.7358101,14.037037 17.0876096,12.2670782 14.988367,12.2670782 L14.988367,12.2670782 L14.988367,12.2670782 Z M14.988367,18.7041152 C13.7139272,18.7041152 12.7401822,17.6584362 12.7401822,16.2898491 C12.7401822,14.921262 13.7139272,13.875583 14.988367,13.875583 C16.2628068,13.875583 17.2365518,14.921262 17.2365518,16.2898491 C17.2365518,17.6584362 16.2628068,18.7041152 14.988367,18.7041152 L14.988367,18.7041152 L14.988367,18.7041152 Z" id="Shape"></path>
                                                <path d="M22.481848,29.5683128 L22.481848,14.7613169 C22.481848,10.2541838 19.7095551,4.13854596 14.988367,1 C10.2671789,4.13854596 7.49488607,10.2541838 7.49488607,14.8412894 L7.49488607,29.6482853 L0.0014051155,39.626749 L29.976734,39.626749 L22.4832531,29.5668039 L22.481848,29.5683128 L22.481848,29.5683128 Z M7.49348096,38.0182442 L3.14745872,38.0182442 L7.49348096,32.1440329 L7.49348096,38.0182442 L7.49348096,38.0182442 Z M20.9825898,38.0182442 L8.99273919,38.0182442 L8.99273919,14.8412894 C8.99273919,11.2198903 11.0905766,5.98847737 14.988367,2.93141289 C18.8847523,5.98998628 20.9839949,11.1399177 20.9839949,14.8412894 L20.9839949,38.0182442 L20.9825898,38.0182442 L20.9825898,38.0182442 Z M22.481848,32.1440329 L26.8278702,38.0182442 L22.481848,38.0182442 L22.481848,32.1440329 L22.481848,32.1440329 Z" id="Shape"></path>
                                                <path d="M14.2380353,41.2382716 L15.7372936,41.2382716 L15.7372936,49.2853223 L14.2380353,49.2853223 L14.2380353,41.2382716 L14.2380353,41.2382716 Z" id="Shape"></path>
                                                <path d="M17.9854783,41.2382716 L19.4847367,41.2382716 L19.4847367,46.0668039 L17.9854783,46.0668039 L17.9854783,41.2382716 L17.9854783,41.2382716 Z" id="Shape"></path>
                                                <path d="M10.4919974,41.2382716 L11.9912557,41.2382716 L11.9912557,46.0668039 L10.4919974,46.0668039 L10.4919974,41.2382716 L10.4919974,41.2382716 Z" id="Shape"></path>
                                            </g>
                                        </g>
                                    </g>
                                </g>
                            </g>
                        </g>
                    </g>
                </g>
            </g>
        </g>
    </g>
</svg>
