<?xml version="1.0" encoding="UTF-8" standalone="no"?>
<svg width="72px" height="72px" viewBox="0 0 72 72" version="1.1" xmlns="http://www.w3.org/2000/svg" xmlns:xlink="http://www.w3.org/1999/xlink" xmlns:sketch="http://www.bohemiancoding.com/sketch/ns">
    <!-- Generator: Sketch 3.3.2 (12043) - http://www.bohemiancoding.com/sketch -->
    <title>Oval 1</title>
    <desc>Created with Sketch.</desc>
    <defs></defs>
    <g id="Page-1" stroke="none" stroke-width="1" fill="none" fill-rule="evenodd" sketch:type="MSPage">
        <path d="M35.5,47 L35.5,631.882874" id="Line" stroke="#626262" stroke-linecap="square" opacity="0.400000006" sketch:type="MSShapeGroup"></path>
        <g id="discover-+-Oval-1" sketch:type="MSLayerGroup" transform="translate(1.000000, 1.000000)" stroke="#1D2937" fill="#FFFFFF">
            <circle id="Oval-1" sketch:type="MSShapeGroup" cx="35" cy="35" r="35"></circle>
        </g>
        <path d="M58.5431794,47.2377107 C58.5398372,47.225297 58.5355402,47.2133608 58.5317206,47.2014246 C58.5135776,47.1450858 58.4901827,47.0916116 58.4591485,47.0424345 C58.4572388,47.0390923 58.4558064,47.0357502 58.4534192,47.0324081 C58.4185655,46.9798888 58.3751177,46.9345313 58.3273729,46.8934707 C58.322121,46.8886963 58.3192563,46.8824894 58.3135269,46.8781924 L53.4211185,42.9387699 L53.4211185,22.5049553 C53.4211185,21.0683146 52.252326,19.8999996 50.8161628,19.8999996 L21.1986381,19.8999996 C19.7619974,19.8999996 18.5936824,21.068792 18.5936824,22.5049553 L18.5936824,42.9382924 L13.6869505,46.877715 C13.6812211,46.8824894 13.677879,46.8886963 13.6726271,46.8934707 C13.6248823,46.9340538 13.5814345,46.9794114 13.5465808,47.0314532 C13.5441936,47.0347953 13.5432387,47.0386149 13.5408515,47.041957 C13.5098173,47.0906567 13.4864224,47.1441309 13.4682794,47.2004697 C13.4639823,47.2128834 13.4601628,47.2248196 13.4568206,47.2377107 C13.4424972,47.2921397 13.4329482,47.3484786 13.4329482,47.4076821 L13.4329482,48.3950443 C13.4329482,49.831685 14.6017407,51 16.0383813,51 L55.9620961,51 C57.3987368,51 58.5670518,49.8312076 58.5670518,48.3950443 L58.5670518,47.4076821 C58.5670518,47.3484786 58.5575028,47.2921397 58.5431794,47.2377107 L58.5431794,47.2377107 Z M19.9520217,22.5049553 C19.9520217,21.8174303 20.5111131,21.2588163 21.1981606,21.2588163 L50.8156853,21.2588163 C51.5032103,21.2588163 52.0618243,21.8179078 52.0618243,22.5049553 L52.0618243,42.5845036 L19.9520217,42.5845036 L19.9520217,22.5049553 L19.9520217,22.5049553 Z M19.5118147,43.9428428 L52.5025087,43.9428428 L55.9611412,46.7277963 L16.0436333,46.7277963 L19.5118147,43.9428428 L19.5118147,43.9428428 Z M57.2082351,48.3945669 C57.2082351,49.0820918 56.6491436,49.6407059 55.9620961,49.6407059 L16.0383813,49.6407059 C15.3508564,49.6407059 14.7917649,49.0816144 14.7917649,48.3945669 L14.7917649,48.086613 L57.2082351,48.086613 L57.2082351,48.3945669 L57.2082351,48.3945669 Z" id="Shape-Copy" fill="#DE6826" sketch:type="MSShapeGroup"></path>
    </g>
</svg>