<?xml version="1.0" encoding="UTF-8" standalone="no"?>
<svg width="72px" height="72px" viewBox="0 0 72 72" version="1.1" xmlns="http://www.w3.org/2000/svg" xmlns:xlink="http://www.w3.org/1999/xlink" xmlns:sketch="http://www.bohemiancoding.com/sketch/ns">
    <!-- Generator: Sketch 3.3.2 (12043) - http://www.bohemiancoding.com/sketch -->
    <title>process</title>
    <desc>Created with Sketch.</desc>
    <defs></defs>
    <g id="Page-1" stroke="none" stroke-width="1" fill="none" fill-rule="evenodd" sketch:type="MSPage">
        <g id="Group" sketch:type="MSLayerGroup" transform="translate(0.000000, 1.000000)">
            <path d="M35.5,46 L35.5,630.882874" id="Line" stroke="#626262" stroke-linecap="square" opacity="0.400000006" sketch:type="MSShapeGroup"></path>
            <g id="discover-+-Oval-1" transform="translate(1.000000, 0.000000)" sketch:type="MSShapeGroup">
                <circle id="Oval-1" stroke="#1D2937" fill="#FFFFFF" cx="35" cy="35" r="35"></circle>
                <path d="M51.4855572,19 L37.3321711,19 C36.8827839,19 36.5183066,19.3644773 36.5183066,19.8144421 L36.5183066,23.5735833 C36.5183066,23.6018866 36.5194619,23.6296123 36.52235,23.6579156 L37.1843008,30.0273147 L32.1162761,30.0273147 L32.7782269,23.6579156 C32.781115,23.6301899 32.7822702,23.6018866 32.7822702,23.5735833 L32.7822702,19.8144421 C32.7822702,19.3650549 32.4177929,19 31.9684057,19 L17.8138645,19 C17.3644773,19 17,19.3644773 17,19.8144421 L17,23.5735833 C17,23.6018866 17.0011552,23.6296123 17.0040433,23.6579156 L17.8583411,31.8762715 C17.943251,32.6884032 18.411122,33.3688377 19.0701847,33.7558421 L20.3432559,45.8650363 L19.6293194,49.1210718 C19.5761785,49.3619387 19.6356732,49.6137804 19.7898973,49.8061273 C19.9446991,49.9978967 20.178057,50.109377 20.4247001,50.109377 L29.3523716,50.109377 L29.3639239,50.109377 C29.8138887,50.109377 30.178366,49.7448998 30.178366,49.2955126 C30.178366,49.1874979 30.1575718,49.0846818 30.1188713,48.99053 L29.4372815,45.8812096 L29.6400256,43.950231 L39.6599737,43.950231 L39.8621401,45.8742782 L39.1493589,49.1216494 C39.096218,49.3625163 39.1557127,49.614358 39.3099368,49.8067049 C39.4647386,49.9984743 39.6980965,50.1099547 39.9447396,50.1099547 L48.8724111,50.1099547 L48.8839634,50.1099547 C49.3339283,50.1099547 49.6984055,49.7454774 49.6984055,49.2960902 C49.6984055,49.1880755 49.6776113,49.0852594 49.6389108,48.9911076 L48.9555881,45.8748558 L50.2298145,33.7569974 C50.8888772,33.369993 51.3567482,32.6895584 51.4416581,31.8768492 L52.2959559,23.6590708 C52.298844,23.6313451 52.2999992,23.6030418 52.2999992,23.5747385 L52.2999992,19.8155973 C52.2999992,19.3650549 51.935522,19 51.4855572,19 L51.4855572,19 Z M50.6716927,20.6288842 L50.6716927,22.7597188 L38.1460356,22.7597188 L38.1460356,20.6288842 L50.6716927,20.6288842 L50.6716927,20.6288842 Z M49.8220159,31.7070293 C49.7769616,32.1437089 49.4119067,32.4723738 48.9734943,32.4723738 L39.844234,32.4723738 C39.4058215,32.4723738 39.0407666,32.1437089 38.9957124,31.7076069 L38.2344112,24.3880253 L50.5821618,24.3880253 L49.8220159,31.7070293 L49.8220159,31.7070293 Z M47.3994839,45.0962261 L41.4182444,45.0962261 L40.2618521,34.1006804 L48.5558761,34.1006804 L47.3994839,45.0962261 L47.3994839,45.0962261 Z M19.4774057,31.7076069 L18.7161046,24.3880253 L31.0638552,24.3880253 L30.302554,31.7076069 C30.2574998,32.1437089 29.8930225,32.4723738 29.45461,32.4723738 L20.3259273,32.4723738 C19.8875149,32.4723738 19.5230376,32.1437089 19.4774057,31.7076069 L19.4774057,31.7076069 Z M20.7435455,34.1001028 L29.0375695,34.1001028 L27.8811773,45.0962261 L21.8999377,45.0962261 L20.7435455,34.1001028 L20.7435455,34.1001028 Z M31.153386,20.6288842 L31.153386,22.7597188 L18.6277289,22.7597188 L18.6277289,20.6288842 L31.153386,20.6288842 L31.153386,20.6288842 Z M21.4361101,48.4810705 L21.8213816,46.723955 L27.9545348,46.723955 L28.3398063,48.4810705 L21.4361101,48.4810705 L21.4361101,48.4810705 Z M29.8260187,42.1775198 L30.7115079,33.7564198 C31.3711482,33.3694154 31.8395968,32.6889808 31.9233515,31.8756939 L31.9464562,31.6550437 L37.3529654,31.6550437 L37.3760701,31.8762715 C37.46098,32.6884032 37.928851,33.3688377 38.5879137,33.7558421 L39.4734029,42.1775198 L29.8260187,42.1775198 L29.8260187,42.1775198 Z M40.9573048,48.4810705 L41.3425763,46.723955 L47.4751519,46.723955 L47.8604235,48.4810705 L40.9573048,48.4810705 L40.9573048,48.4810705 Z" id="Shape" fill="#E67E22" transform="translate(34.650000, 34.554977) rotate(90.000000) translate(-34.650000, -34.554977) "></path>
            </g>
        </g>
    </g>
</svg>