<?xml version="1.0" encoding="UTF-8" standalone="no"?>
<svg width="72px" height="72px" viewBox="0 0 72 72" version="1.1" xmlns="http://www.w3.org/2000/svg" xmlns:xlink="http://www.w3.org/1999/xlink" xmlns:sketch="http://www.bohemiancoding.com/sketch/ns">
    <!-- Generator: Sketch 3.3.1 (12005) - http://www.bohemiancoding.com/sketch -->
    <title>Oval 3 + Shape 3</title>
    <desc>Created with Sketch.</desc>
    <defs></defs>
    <g id="02-Services" stroke="none" stroke-width="1" fill="none" fill-rule="evenodd" sketch:type="MSPage">
        <g id="02b-Meteor-Dev" sketch:type="MSArtboardGroup" transform="translate(-134.000000, -2258.000000)">
            <g id="Leadership" sketch:type="MSLayerGroup" transform="translate(130.000000, 1895.000000)">
                <g id="Group" transform="translate(0.000000, 185.000000)" sketch:type="MSShapeGroup">
                    <g id="Meetups" transform="translate(5.000000, 170.000000)">
                        <g id="Oval-3-+-Shape-3" transform="translate(0.000000, 9.000000)">
                            <circle id="Oval-3" stroke="#1D2937" stroke-width="2" fill-opacity="0.149999991" fill="#FFFFFF" cx="35" cy="35" r="35"></circle>
                            <path d="M53.5622642,41.3830189 C54.4069182,39.1471698 54.8540881,36.8119497 54.8540881,34.427044 C54.8540881,23.7446541 46.1591195,15 35.427044,15 C24.6949686,15 16,23.7446541 16,34.427044 C16,40.3396226 18.6333333,45.6062893 22.8069182,49.1836478 C22.8566038,49.2333333 22.9062893,49.2830189 23.0056604,49.3327044 C26.3842767,52.1150943 30.7069182,53.8540881 35.427044,53.8540881 C37.9610063,53.8540881 40.445283,53.3572327 42.7805031,52.4132075 C44.1220126,53.5559748 45.8610063,54.2515723 47.7987421,54.2515723 C52.0716981,54.2515723 55.5,50.7735849 55.5,46.5503145 C55.5,44.5628931 54.754717,42.7245283 53.5622642,41.3830189 L53.5622642,41.3830189 Z M17.7886792,34.427044 C17.7886792,24.6886792 25.7383648,16.7886792 35.427044,16.7886792 C45.1157233,16.7886792 53.0654088,24.6886792 53.0654088,34.427044 C53.0654088,36.3647799 52.7672956,38.3025157 52.1213836,40.1408805 C52.0716981,40.1408805 52.0716981,40.091195 52.0220126,40.091195 C51.872956,39.9918239 51.7238994,39.8924528 51.5748428,39.7930818 C51.5251572,39.7433962 51.4257862,39.6937107 51.3761006,39.6937107 C51.227044,39.6440252 51.127673,39.5446541 50.9786164,39.4949686 C50.9289308,39.445283 50.8295597,39.445283 50.7798742,39.3955975 C50.6308176,39.3459119 50.4320755,39.2465409 50.2830189,39.1968553 C50.2333333,39.1968553 50.1836478,39.1471698 50.1836478,39.1471698 C49.9849057,39.0974843 49.736478,39.0477987 49.5377358,38.9981132 C49.4880503,38.9981132 49.3886792,38.9484277 49.3389937,38.9484277 C49.1899371,38.8987421 48.991195,38.8987421 48.8421384,38.8490566 L48.6433962,38.8490566 C48.3949686,38.8490566 48.1962264,38.7993711 47.9477987,38.7993711 C46.6062893,38.7993711 45.3641509,39.1471698 44.3207547,39.6937107 C43.5257862,38.9484277 42.6811321,38.3025157 41.6874214,37.8056604 C42.7308176,36.5138365 43.327044,34.8742138 43.327044,33.0855346 C43.327044,28.8125786 39.8490566,25.3842767 35.6257862,25.3842767 C31.4025157,25.3842767 27.7257862,28.8125786 27.7257862,33.0855346 C27.7257862,34.8742138 28.3220126,36.5138365 29.3654088,37.8553459 C24.7446541,40.3893082 23.3037736,44.3641509 22.8069182,46.6993711 C19.7264151,43.5194969 17.7886792,39.1968553 17.7886792,34.427044 L17.7886792,34.427044 Z M29.5144654,33.0855346 C29.5144654,29.8062893 32.1974843,27.172956 35.427044,27.172956 C38.6566038,27.172956 41.3396226,29.8559748 41.3396226,33.0855346 C41.3396226,36.3150943 38.6566038,38.9981132 35.427044,38.9981132 C32.1974843,38.9981132 29.5144654,36.3647799 29.5144654,33.0855346 L29.5144654,33.0855346 Z M35.427044,52.0157233 C31.2534591,52.0157233 27.427673,50.5748428 24.3968553,48.1402516 C24.4962264,46.6993711 25.291195,41.8798742 30.6572327,39.1471698 C31.9490566,40.190566 33.6383648,40.7867925 35.427044,40.7867925 C37.2157233,40.7867925 38.9050314,40.1408805 40.1968553,39.1471698 C41.091195,39.5943396 41.9358491,40.1408805 42.6811321,40.7867925 C41.091195,42.1779874 40.0974843,44.2647799 40.0974843,46.5006289 C40.0974843,46.7490566 40.0974843,46.9974843 40.1471698,47.1962264 L40.1471698,47.3949686 C40.1471698,47.5937107 40.1968553,47.7427673 40.2465409,47.9415094 C40.2465409,47.991195 40.2465409,48.0408805 40.2962264,48.090566 C40.3955975,48.5874214 40.5446541,49.0345912 40.7433962,49.481761 L40.7433962,49.481761 C40.8427673,49.6805031 40.9421384,49.9289308 41.0415094,50.127673 C41.0415094,50.127673 41.0415094,50.1773585 41.091195,50.1773585 C41.190566,50.3761006 41.3396226,50.5748428 41.4389937,50.7735849 C41.4389937,50.7735849 41.4389937,50.7735849 41.4389937,50.8232704 C41.4886792,50.872956 41.4886792,50.9226415 41.5383648,50.9226415 C39.5509434,51.6679245 37.5138365,52.0157233 35.427044,52.0157233 L35.427044,52.0157233 Z M47.7987421,52.4628931 C44.9666667,52.4628931 42.581761,50.4754717 42.0352201,47.7924528 L42.0352201,47.7427673 C41.9855346,47.5937107 41.9855346,47.4446541 41.9855346,47.2459119 L41.9855346,47.1465409 C41.9855346,46.9477987 41.9358491,46.7490566 41.9358491,46.5503145 C41.9358491,43.2710692 44.5691824,40.6377358 47.8484277,40.6377358 C48.0471698,40.6377358 48.2459119,40.6377358 48.4446541,40.6874214 C48.5440252,40.6874214 48.5937107,40.6874214 48.6930818,40.7371069 C48.7924528,40.7371069 48.9415094,40.7867925 49.0408805,40.7867925 C49.1402516,40.7867925 49.2396226,40.836478 49.3389937,40.836478 C49.4383648,40.836478 49.5377358,40.8861635 49.5874214,40.8861635 C49.6867925,40.9358491 49.7861635,40.9358491 49.8855346,40.9855346 C49.9849057,41.0352201 50.0345912,41.0352201 50.1339623,41.0849057 C50.2333333,41.1345912 50.3327044,41.1842767 50.4320755,41.2339623 C50.481761,41.2836478 50.5811321,41.2836478 50.6308176,41.3333333 C50.7301887,41.3830189 50.8295597,41.4823899 50.9786164,41.5320755 C51.0283019,41.581761 51.0779874,41.581761 51.127673,41.6314465 C51.227044,41.7308176 51.3761006,41.7805031 51.4754717,41.8798742 C51.5251572,41.9295597 51.5251572,41.9295597 51.5748428,41.9792453 C51.6742138,42.0786164 51.8232704,42.1779874 51.9226415,42.2773585 C53.1150943,43.3704403 53.8106918,44.9106918 53.8106918,46.6 C53.7113208,49.7798742 51.0779874,52.4628931 47.7987421,52.4628931 L47.7987421,52.4628931 Z M51.1773585,46.5006289 C51.1773585,46.9974843 50.7798742,47.3949686 50.2830189,47.3949686 L48.6930818,47.3949686 L48.6930818,48.9849057 C48.6930818,49.481761 48.2955975,49.8792453 47.7987421,49.8792453 C47.3018868,49.8792453 46.9044025,49.481761 46.9044025,48.9849057 L46.9044025,47.3949686 L45.3144654,47.3949686 C44.8176101,47.3949686 44.4201258,46.9974843 44.4201258,46.5006289 C44.4201258,46.0037736 44.8176101,45.6062893 45.3144654,45.6062893 L46.9044025,45.6062893 L46.9044025,44.0163522 C46.9044025,43.5194969 47.3018868,43.1220126 47.7987421,43.1220126 C48.2955975,43.1220126 48.6930818,43.5194969 48.6930818,44.0163522 L48.6930818,45.6062893 L50.2830189,45.6062893 C50.7798742,45.6062893 51.1773585,46.0037736 51.1773585,46.5006289 L51.1773585,46.5006289 Z" id="Shape-3" fill="#DF6823"></path>
                        </g>
                    </g>
                </g>
            </g>
        </g>
    </g>
</svg>