<?xml version="1.0" encoding="UTF-8" standalone="no"?>
<svg width="72px" height="72px" viewBox="0 0 72 72" version="1.1" xmlns="http://www.w3.org/2000/svg" xmlns:xlink="http://www.w3.org/1999/xlink" xmlns:sketch="http://www.bohemiancoding.com/sketch/ns">
    <!-- Generator: Sketch 3.3.1 (12005) - http://www.bohemiancoding.com/sketch -->
    <title>Oval 3 + Shape + Shape + Shape</title>
    <desc>Created with Sketch.</desc>
    <defs></defs>
    <g id="02-Services" stroke="none" stroke-width="1" fill="none" fill-rule="evenodd" sketch:type="MSPage">
        <g id="02b-Meteor-Dev" sketch:type="MSArtboardGroup" transform="translate(-129.000000, -2443.000000)">
            <g id="Leadership" sketch:type="MSLayerGroup" transform="translate(130.000000, 1895.000000)">
                <g id="Group" transform="translate(0.000000, 185.000000)" sketch:type="MSShapeGroup">
                    <g id="Meteoric-+-Shape-+-Shape-+-Shape-+-Today’s-mobile-users" transform="translate(0.000000, 355.000000)">
                        <g id="Oval-3-+-Shape-+-Shape-+-Shape" transform="translate(0.000000, 9.000000)">
                            <circle id="Oval-3" stroke="#1D2937" stroke-width="2" fill-opacity="0.149999991" fill="#FFFFFF" cx="35" cy="35" r="35"></circle>
                            <g id="Shape-+-Shape-+-Shape" transform="translate(23.000000, 15.000000)" fill="#DF6823">
                                <path d="M12.066,34.2222222 C12.5944615,34.2222222 13.0716923,34.4284444 13.4178462,34.7613333 L13.4169231,34.7622222 C13.7635385,35.0955556 13.9786154,35.5564444 13.9786154,36.0631111 C13.9786154,36.5693333 13.7644615,37.0297778 13.4183077,37.3631111 L13.416,37.3653333 C13.0703077,37.6986667 12.5916923,37.9048889 12.0664615,37.9048889 C11.5407692,37.9048889 11.0621538,37.6986667 10.7164615,37.3653333 L10.7141538,37.3631111 C10.368,37.0297778 10.1538462,36.5693333 10.1538462,36.0631111 C10.1538462,35.5564444 10.3684615,35.0955556 10.7155385,34.7622222 L10.7141538,34.7613333 C11.0603077,34.4288889 11.538,34.2222222 12.066,34.2222222 L12.066,34.2222222 L12.066,34.2222222 Z M12.786,35.3706667 C12.6018462,35.1933333 12.3466154,35.0831111 12.066,35.0831111 C11.7853846,35.0831111 11.5301538,35.1933333 11.346,35.3706667 L11.3436923,35.3706667 C11.1609231,35.5462222 11.0473846,35.7915556 11.0473846,36.0635556 C11.0473846,36.3355556 11.1613846,36.5813333 11.3436923,36.7568889 L11.346,36.7591111 C11.5287692,36.9346667 11.784,37.0448889 12.066,37.0448889 C12.3484615,37.0448889 12.6036923,36.9346667 12.786,36.7591111 L12.7883077,36.7568889 C12.9706154,36.5808889 13.0850769,36.3355556 13.0850769,36.0635556 C13.0850769,35.7915556 12.9710769,35.5466667 12.7883077,35.3706667 L12.786,35.3706667 L12.786,35.3706667 Z" id="Shape"></path>
                                <path d="M3.216,4 L20.7844615,4 L21.2312308,4 L21.2312308,4.43022222 L21.2312308,33.1084444 L21.2312308,33.5386667 L20.7844615,33.5386667 L3.216,33.5386667 L2.76923077,33.5386667 L2.76923077,33.1088889 L2.76923077,4.43066667 L2.76923077,4.00044444 L3.216,4.00044444 L3.216,4 L3.216,4 Z M20.3372308,4.86044444 L3.66276923,4.86044444 L3.66276923,32.6782222 L20.3372308,32.6782222 L20.3372308,4.86044444 L20.3372308,4.86044444 Z" id="Shape"></path>
                                <path d="M3.60092308,1.29022222 C2.97923077,1.29022222 2.41292308,1.53511111 2.00538462,1.92888889 L2.00307692,1.93111111 C1.59415385,2.32355556 1.33938462,2.86888889 1.33938462,3.46755556 L1.33938462,36.532 C1.33938462,37.1306667 1.59415385,37.676 2.00307692,38.0684444 L2.00538462,38.0706667 C2.41292308,38.4644444 2.97923077,38.7093333 3.60092308,38.7093333 L20.3321538,38.7093333 C20.9538462,38.7093333 21.5196923,38.4644444 21.9272308,38.0706667 L21.93,38.0684444 C22.3384615,37.676 22.5927692,37.1306667 22.5927692,36.532 L22.5927692,3.46755556 C22.5927692,2.86888889 22.338,2.32355556 21.93,1.93111111 L21.9272308,1.92888889 C21.5192308,1.53511111 20.9533846,1.29022222 20.3321538,1.29022222 L3.60092308,1.29022222 L3.60092308,1.29022222 Z M1.05784615,1.02133333 L1.06061538,1.01866667 C1.71369231,0.390666667 2.61461538,0 3.60092308,0 L20.3321538,0 C21.3175385,0 22.2189231,0.390666667 22.872,1.01911111 L22.8747692,1.02177778 C23.5273846,1.65066667 23.9326154,2.51866667 23.9326154,3.468 L23.9326154,36.5324444 C23.9326154,37.4822222 23.5269231,38.3497778 22.8747692,38.9786667 L22.872,38.9813333 C22.2189231,39.6093333 21.318,40 20.3321538,40 L3.60092308,40 C2.61461538,40 1.71369231,39.6093333 1.06061538,38.9808889 L1.05784615,38.9782222 C0.405230769,38.3493333 -1.77635684e-15,37.4813333 -1.77635684e-15,36.532 L-1.77635684e-15,3.46755556 C-1.77635684e-15,2.51822222 0.405230769,1.65022222 1.05784615,1.02133333 L1.05784615,1.02133333 Z" id="Shape"></path>
                            </g>
                        </g>
                    </g>
                </g>
            </g>
        </g>
    </g>
</svg>