<?xml version="1.0" encoding="UTF-8" standalone="no"?>
<svg width="72px" height="72px" viewBox="0 0 72 72" version="1.1" xmlns="http://www.w3.org/2000/svg" xmlns:xlink="http://www.w3.org/1999/xlink" xmlns:sketch="http://www.bohemiancoding.com/sketch/ns">
    <!-- Generator: Sketch 3.3.1 (12005) - http://www.bohemiancoding.com/sketch -->
    <title>Oval 3 + Shape</title>
    <desc>Created with Sketch.</desc>
    <defs></defs>
    <g id="02-Services" stroke="none" stroke-width="1" fill="none" fill-rule="evenodd" sketch:type="MSPage">
        <g id="02b-Meteor-Dev" sketch:type="MSArtboardGroup" transform="translate(-783.000000, -2443.000000)">
            <g id="Leadership" sketch:type="MSLayerGroup" transform="translate(130.000000, 1895.000000)">
                <g id="Group" transform="translate(0.000000, 185.000000)" sketch:type="MSShapeGroup">
                    <g id="Open-Source" transform="translate(654.000000, 355.000000)">
                        <g id="Oval-3-+-Shape" transform="translate(0.000000, 9.000000)">
                            <circle id="Oval-3" stroke="#1D2937" stroke-width="2" fill-opacity="0.149999991" fill="#FFFFFF" cx="35" cy="35" r="35"></circle>
                            <path d="M54.5748851,26.0761332 C54.5762037,26.0734961 54.5768629,26.070859 54.5781815,26.0682219 C54.5992783,26.0293247 54.6157601,25.9877904 54.6309234,25.9469154 C54.639494,25.9271372 54.6493831,25.907359 54.6559759,25.8869214 C54.665865,25.8572541 54.6698206,25.8256089 54.6757541,25.794623 C54.6830061,25.7623186 54.6915767,25.7306734 54.6955323,25.6983689 C54.6975102,25.6812278 54.6955323,25.6640867 54.6961916,25.6469455 C54.6988287,25.6007963 54.7021251,25.5546471 54.6981694,25.5091572 C54.6961916,25.4867418 54.6889396,25.4649858 54.6856432,25.4425705 C54.6790505,25.4016954 54.6737763,25.3601611 54.6625686,25.3199454 C54.6572944,25.3008264 54.6480646,25.283026 54.6414718,25.2645663 C54.6263085,25.2217135 54.6111452,25.1788607 54.5900484,25.1379856 C54.5887299,25.1353485 54.5880706,25.1327114 54.5867521,25.1300744 C54.5762037,25.1109554 54.5623589,25.0951328 54.5511512,25.0766731 C54.5300545,25.0423908 54.5096169,25.0074493 54.483246,24.9751448 C54.4621492,24.9481146 54.4370968,24.92504 54.4133629,24.9013061 C54.3929254,24.8802093 54.3731471,24.857794 54.3500725,24.8380158 C54.315131,24.8090077 54.2782116,24.7846145 54.2399737,24.7608806 C54.2248104,24.7509915 54.2122842,24.7391246 54.1964616,24.730554 L54.1819575,24.7219835 C54.1799797,24.7213242 54.1786612,24.7206649 54.1773426,24.7193464 L42.4396198,18.1246238 C42.4330271,18.1206681 42.4257751,18.1193496 42.4191823,18.1153939 C42.3914928,18.1008899 42.3618255,18.089023 42.3321581,18.077156 C42.2991944,18.0633112 42.2668899,18.0494665 42.2339262,18.0389181 C42.2154665,18.0336439 42.195029,18.0310068 42.1759101,18.0263919 C42.1323979,18.0165028 42.0882266,18.0066136 42.0440552,18.002658 C42.0295511,18.0013394 42.0143878,18.002658 42.000543,18.0019987 C41.9517567,18.0000209 41.9036297,17.9987023 41.8548434,18.0039765 C41.8377023,18.0052951 41.8192426,18.0105693 41.8021014,18.0138657 C41.7572708,18.0211177 41.7124401,18.0283697 41.6695873,18.0415552 C41.6484905,18.0481479 41.6287122,18.0573778 41.6076155,18.0659483 C41.5673997,18.0804524 41.5285025,18.096275 41.4902646,18.1167125 C41.4843311,18.1193496 41.4783977,18.1206681 41.4731235,18.1239645 L35.3504414,21.5515325 L29.2271001,18.1239645 C29.2211666,18.1206681 29.2152331,18.1193496 29.2092997,18.1160532 C29.1710618,18.0956157 29.1315053,18.0804524 29.0919488,18.0652891 C29.0715113,18.0573778 29.0517331,18.0481479 29.0312956,18.0415552 C28.9864649,18.0277104 28.9396564,18.0191399 28.8935072,18.0125471 C28.8776846,18.0105693 28.861862,18.0059544 28.8460394,18.0039765 C28.7939568,17.9987023 28.7418741,17.9993616 28.6897914,18.0019987 C28.679243,18.0019987 28.6686946,18.0013394 28.6581462,18.0019987 C28.6093599,18.0059544 28.5612329,18.0165028 28.5124466,18.0283697 C28.4979425,18.0316661 28.4827792,18.0336439 28.4689344,18.0375995 C28.4313558,18.0488072 28.395755,18.0646298 28.3588356,18.0804524 C28.3331239,18.0910008 28.3074122,18.1008899 28.2823598,18.1140754 C28.2751077,18.118031 28.2671964,18.1200089 28.2592852,18.1239645 L16.5202438,24.7193464 C16.5195846,24.7193464 16.5189253,24.7200056 16.5189253,24.7200056 L16.5024434,24.7292355 C16.484643,24.7391246 16.4707983,24.7523101 16.4543164,24.7628585 C16.4187156,24.7859331 16.3824555,24.8083484 16.3494918,24.8360379 C16.3250986,24.8571347 16.3046611,24.8802093 16.2822458,24.9032839 C16.2598304,24.9263585 16.2360965,24.9481146 16.2149998,24.973167 C16.1886288,25.0061307 16.1681913,25.0417316 16.1464352,25.0766731 C16.1352275,25.0944735 16.1220421,25.1096368 16.1121529,25.1287558 C16.1108344,25.1313929 16.1101751,25.13403 16.1088566,25.1366671 C16.0890783,25.1755643 16.0745743,25.2164393 16.0600703,25.2573143 C16.052159,25.2784111 16.0422698,25.2981893 16.0356771,25.3199454 C16.0264473,25.3515906 16.0231509,25.3852136 16.0172174,25.417518 C16.0119432,25.4478446 16.0033727,25.4781713 16.0007356,25.5091572 C15.9987577,25.5348689 16.0013948,25.5612399 16.0013948,25.5869516 C16.0013948,25.6245302 15.9987577,25.6621089 16.0027134,25.6990282 C16.0053505,25.7253992 16.013921,25.7517702 16.018536,25.7774819 C16.025788,25.8144013 16.0310622,25.8513206 16.0422698,25.8869214 C16.0488626,25.907359 16.059411,25.9271372 16.0673223,25.9475747 C16.0831449,25.9884497 16.0983082,26.0293247 16.1200642,26.0675627 C16.1213828,26.0701998 16.1220421,26.0728369 16.1233606,26.0761332 C16.1279755,26.0840445 16.1352275,26.089978 16.1391832,26.09723 C16.174784,26.1565647 16.2163183,26.2112845 16.2637861,26.2620486 C16.2802679,26.279849 16.2967498,26.2963309 16.3145502,26.3128128 C16.3567438,26.3523692 16.4042115,26.3873108 16.4543164,26.4202745 C16.4721168,26.4314822 16.4892579,26.4453269 16.5077176,26.455216 C16.5129918,26.4585124 16.5176067,26.4624681 16.5228809,26.4657644 L21.7944396,29.2511991 L17.2151191,31.4624057 C17.1966595,31.4716355 17.1808369,31.4841617 17.1630365,31.4940509 C17.1320506,31.511192 17.1017239,31.5289924 17.0727159,31.5494299 C17.0456856,31.5685489 17.0212924,31.5896457 16.9968993,31.6114017 C16.9731654,31.6318392 16.9500908,31.6522767 16.9283347,31.6753513 C16.9032823,31.7023816 16.880867,31.7307304 16.8591109,31.7597385 C16.8465847,31.7755611 16.8327399,31.7887466 16.8215323,31.8052284 C16.8162581,31.8131397 16.813621,31.8217103 16.8083468,31.8296216 C16.7892278,31.8599482 16.7740645,31.8915934 16.7582419,31.9238978 C16.7450564,31.9515873 16.7305524,31.9786176 16.720004,32.0063071 C16.7087963,32.0353152 16.7022036,32.0656418 16.693633,32.0959685 C16.6850625,32.1276136 16.6758326,32.1592588 16.6705584,32.1915633 C16.6652842,32.2218899 16.664625,32.2528758 16.6626471,32.2832024 C16.6606693,32.3155069 16.6573729,32.3478113 16.6580322,32.3801158 C16.6586915,32.4111017 16.6639657,32.4420876 16.6679213,32.4730735 C16.671877,32.5053779 16.6751733,32.5383416 16.6824254,32.5706461 C16.6890181,32.5983356 16.6982479,32.6260251 16.7074778,32.6537147 C16.7186855,32.6893155 16.7305524,32.7235978 16.7457157,32.7572208 C16.7490121,32.7657913 16.7509899,32.7743619 16.7549456,32.7822732 C16.7602197,32.7928216 16.7687903,32.8000736 16.7740645,32.810622 C16.8070282,32.8739123 16.847244,32.9339063 16.8947117,32.9892854 C16.9059194,33.0024709 16.9151493,33.0169749 16.9270162,33.0295011 C16.9777803,33.0835616 17.0338187,33.1336665 17.0977683,33.1765193 L23.0233273,37.1137065 C23.0075047,37.1835896 22.9969563,37.2567691 22.9969563,37.3319263 L22.9969563,43.1783724 L22.9969563,43.1796909 L22.9969563,43.1856244 C22.9969563,43.2021063 23.0009119,43.2179289 23.0015712,43.2337514 C23.003549,43.2812192 23.0068454,43.3293462 23.0160752,43.3754955 C23.0220087,43.4064814 23.0325571,43.4354894 23.041787,43.4651568 C23.0510168,43.496802 23.0582688,43.5291064 23.070795,43.5600923 C23.082662,43.5897597 23.0991438,43.6161306 23.1136479,43.6444794 C23.1288112,43.6734875 23.1419967,43.7024956 23.1604564,43.7301851 C23.1775975,43.7565561 23.2000128,43.78029 23.2197911,43.8046831 C23.2402286,43.8297356 23.2586883,43.8561066 23.2811036,43.8791812 C23.3127488,43.9114856 23.3490089,43.9391751 23.385269,43.9668647 C23.399773,43.9787316 23.4116399,43.9919171 23.4268032,44.0024655 L23.4320774,44.0064211 L34.7893988,51.7726745 C34.7900581,51.7733337 34.7907174,51.7733337 34.7913767,51.773993 C34.8118142,51.7878378 34.8348888,51.7977269 34.8573041,51.8102531 C34.8790602,51.8234386 34.9001569,51.8353055 34.9225723,51.8465132 C34.9575138,51.8629951 34.9931146,51.8768398 35.0306933,51.8887068 C35.049153,51.8952995 35.0669534,51.9018923 35.0854131,51.9065072 C35.0999171,51.9104628 35.1137619,51.915737 35.1282659,51.9190334 C35.198149,51.934856 35.2700099,51.9447451 35.3445079,51.9447451 C35.3451672,51.9447451 35.3458265,51.9454044 35.3464858,51.9454044 L35.3464858,51.9454044 L35.347145,51.9454044 L35.3478043,51.9454044 L35.3478043,51.9454044 C35.3484636,51.9454044 35.3491229,51.9447451 35.3497821,51.9447451 C35.4242802,51.9447451 35.4961411,51.934856 35.5660242,51.9190334 C35.5805282,51.915737 35.594373,51.9104628 35.608877,51.9065072 C35.6273367,51.901233 35.6451371,51.8946402 35.6635968,51.8887068 C35.7005162,51.8755213 35.7367763,51.8623358 35.7717178,51.8465132 C35.7941331,51.8353055 35.8152299,51.8234386 35.836986,51.8109124 C35.858742,51.7977269 35.8818166,51.788497 35.9029134,51.773993 C35.9035727,51.7733337 35.9048912,51.7733337 35.9055505,51.7726745 L47.2668276,44.0024655 C47.2839687,43.9905985 47.2971542,43.9760945 47.3129768,43.962909 C47.347259,43.936538 47.3815413,43.9101671 47.4118679,43.8791812 C47.4349425,43.8561066 47.4534022,43.8297356 47.474499,43.8040239 C47.493618,43.7796307 47.515374,43.7565561 47.5331744,43.7301851 C47.5509749,43.7031549 47.5648196,43.6734875 47.5793237,43.6444794 C47.5938277,43.6167899 47.6109688,43.5897597 47.6221765,43.5600923 C47.635362,43.5291064 47.6419547,43.4974612 47.6518439,43.4651568 C47.6610737,43.4354894 47.6716221,43.4064814 47.6775556,43.3754955 C47.6874447,43.3280277 47.6900818,43.2792414 47.6920596,43.2311144 C47.6927189,43.215951 47.6966745,43.2007877 47.6966745,43.1856244 L47.6966745,43.1810095 L47.6966745,43.1783724 L47.6966745,37.3325856 C47.6966745,37.2574283 47.6861261,37.1849081 47.6709628,37.1143658 L53.5965218,33.1771786 C53.6611307,33.1343258 53.717169,33.0842209 53.7679332,33.0301604 C53.7798001,33.0176342 53.7883707,33.0037894 53.7995783,32.9912632 C53.8470461,32.9352249 53.8879211,32.8752309 53.9215441,32.8112813 C53.9268183,32.8013921 53.9353889,32.7941401 53.9400038,32.7835917 C53.9439594,32.7756804 53.945278,32.7671099 53.9492336,32.7591986 C53.964397,32.724257 53.9762639,32.6893155 53.9881308,32.6530554 C53.9967014,32.6260251 54.0059312,32.5989949 54.012524,32.5719646 C54.0204353,32.5390009 54.0237317,32.5060372 54.027028,32.4724142 C54.0309837,32.4420876 54.0362579,32.4117609 54.0369171,32.3814343 C54.0375764,32.3491299 54.03428,32.3161661 54.0323022,32.2838617 C54.0296651,32.2528758 54.0290059,32.2225492 54.0237317,32.1915633 C54.0184575,32.1605774 54.0098869,32.1302507 54.0013163,32.0992648 C53.9927458,32.0676197 53.9854937,32.0359745 53.9736268,32.0056479 C53.9630784,31.9786176 53.9505522,31.9535652 53.9373667,31.9271942 C53.9215441,31.8935712 53.9050623,31.8599482 53.885284,31.828303 C53.8800098,31.821051 53.878032,31.8131397 53.8727578,31.8052284 C53.8622094,31.7894058 53.8483646,31.7768796 53.837157,31.7623756 C53.8147416,31.7320489 53.791667,31.7023816 53.7652961,31.6746921 C53.7441993,31.6516175 53.7211247,31.6318392 53.6973908,31.6114017 C53.6729976,31.5896457 53.6486045,31.5685489 53.6215742,31.5494299 C53.5925661,31.5283331 53.5615802,31.5105327 53.5299351,31.4933916 C53.5127939,31.4835025 53.4969714,31.4709763 53.4791709,31.4624057 L48.8998504,29.2511991 L54.1714091,26.4657644 C54.1773426,26.4624681 54.1819575,26.4585124 54.1872317,26.455216 C54.2043729,26.4453269 54.2195362,26.4328007 54.2366773,26.4222523 C54.28876,26.3892886 54.3362278,26.3530285 54.3803991,26.3121535 C54.396881,26.2969902 54.4133629,26.2811676 54.4285262,26.2640264 C54.4773125,26.2119438 54.5201653,26.1559054 54.5557662,26.0959115 C54.564996,26.0886594 54.5709295,26.0840445 54.5748851,26.0761332 L54.5748851,26.0761332 Z M41.9504382,38.5436728 L37.2834342,35.4978248 L46.7367709,30.4016331 L51.0616114,32.4895553 L41.9504382,38.5436728 L41.9504382,38.5436728 Z M28.7484668,38.5436728 L19.6386121,32.4895553 L23.9627934,30.4016331 L33.4161301,35.4978248 L28.7484668,38.5436728 L28.7484668,38.5436728 Z M28.7445112,20.1209069 L33.3541583,22.7019665 L23.9647712,28.1614184 L19.0525171,25.5658548 L28.7445112,20.1209069 L28.7445112,20.1209069 Z M35.3497821,34.2933303 L26.0111592,29.2591104 L35.3497821,23.8293258 L44.6877458,29.2591104 L35.3497821,34.2933303 L35.3497821,34.2933303 Z M37.3447467,22.7013072 L41.9543938,20.1202476 L51.6463879,25.5645362 L46.7341338,28.1600998 L37.3447467,22.7013072 L37.3447467,22.7013072 Z M28.1966541,40.5511636 C28.208521,40.5590749 28.2217065,40.561712 28.2335734,40.5683047 C28.2882932,40.6012685 28.3456501,40.6269802 28.4049848,40.6487362 C28.4313558,40.6586253 28.4570675,40.6711516 28.4840977,40.6790629 C28.5651885,40.7008189 28.6489164,40.7140044 28.7326442,40.715323 C28.7359406,40.715323 28.739237,40.7166415 28.7431926,40.7166415 L28.7438519,40.7166415 L28.7445112,40.7166415 C28.7478075,40.7166415 28.7517632,40.715323 28.7550596,40.715323 C28.8381281,40.7140044 28.9205375,40.7014782 29.0009689,40.6797221 C29.0279992,40.6724701 29.0523923,40.6599439 29.0787633,40.6500548 C29.1374388,40.628958 29.1941364,40.6045648 29.2488561,40.5722604 C29.2607231,40.5650084 29.2732493,40.5630305 29.284457,40.5557785 L34.3615297,37.2429243 L34.3615297,49.0828346 L24.9774168,42.6654569 L24.9774168,38.4124772 L28.1966541,40.5511636 L28.1966541,40.5511636 Z M45.7228067,42.6647976 L36.3393531,49.0821753 L36.3393531,37.242265 L41.4157666,40.5551193 C41.4269743,40.5623713 41.4388412,40.5643491 41.4500489,40.5709418 C41.5054279,40.6039056 41.5634441,40.6296173 41.6240973,40.6507141 C41.6491498,40.6599439 41.6728836,40.6718108 41.6979361,40.6790629 C41.7796861,40.7008189 41.863414,40.7140044 41.9484604,40.7146637 C41.9510975,40.7146637 41.9530753,40.7159822 41.9557124,40.7159822 L41.9563717,40.7159822 L41.9570309,40.7159822 C41.959668,40.7159822 41.9616459,40.7146637 41.9642829,40.7146637 C42.0499886,40.7140044 42.1343758,40.7008189 42.2174443,40.6784036 C42.2438153,40.6704923 42.2688678,40.6579661 42.2945795,40.648077 C42.3545734,40.6263209 42.4125896,40.6006092 42.4673094,40.5676455 C42.4798356,40.5597342 42.4923618,40.5577564 42.5042287,40.5505043 L45.7241253,38.4111587 L45.7241253,42.6647976 L45.7228067,42.6647976 Z" id="Shape" fill="#DF6823"></path>
                        </g>
                    </g>
                </g>
            </g>
        </g>
    </g>
</svg>