<?xml version="1.0" encoding="UTF-8" standalone="no"?>
<svg width="72px" height="72px" viewBox="0 0 72 72" version="1.1" xmlns="http://www.w3.org/2000/svg" xmlns:xlink="http://www.w3.org/1999/xlink" xmlns:sketch="http://www.bohemiancoding.com/sketch/ns">
    <!-- Generator: Sketch 3.3.1 (12005) - http://www.bohemiancoding.com/sketch -->
    <title>Oval 3 + Shape</title>
    <desc>Created with Sketch.</desc>
    <defs></defs>
    <g id="02-Services" stroke="none" stroke-width="1" fill="none" fill-rule="evenodd" sketch:type="MSPage">
        <g id="02b-Meteor-Dev" sketch:type="MSArtboardGroup" transform="translate(-134.000000, -2081.000000)">
            <g id="Leadership" sketch:type="MSLayerGroup" transform="translate(130.000000, 1895.000000)">
                <g id="Group" transform="translate(0.000000, 185.000000)" sketch:type="MSShapeGroup">
                    <g id="Podcast" transform="translate(5.000000, 0.000000)">
                        <g id="Oval-3-+-Shape" transform="translate(0.000000, 2.000000)">
                            <circle id="Oval-3" stroke="#1D2937" stroke-width="2" fill-opacity="0.149999991" fill="#FFFFFF" cx="35" cy="35" r="35"></circle>
                            <path d="M36.3417508,47.93125 L36.3417508,53.375 L41.8131313,53.375 C43.0757576,53.375 43.0757576,55 41.8131313,55 L29.1868687,55 C27.9242424,55 27.9242424,53.375 29.1868687,53.375 L34.6582492,53.375 L34.6582492,47.93125 C27.9242424,47.484375 23,42.40625 23,35.90625 C23,34.6875 24.7676768,34.6875 24.7676768,35.90625 C24.7676768,41.59375 29.5656566,46.265625 35.5,46.265625 C41.4343434,46.265625 46.2323232,41.59375 46.2323232,35.90625 C46.2323232,34.6875 48,34.6875 48,35.90625 C48,42.40625 43.0757576,47.484375 36.3417508,47.93125 L36.3417508,47.93125 Z M43.496633,23.759375 L43.496633,35.865625 C43.496633,40.171875 39.9612795,43.625 35.5,43.625 C31.0387205,43.625 27.503367,40.13125 27.503367,35.865625 L27.503367,23.759375 C27.503367,19.49375 31.0387205,16 35.5,16 C39.9612795,16 43.496633,19.49375 43.496633,23.759375 L43.496633,23.759375 Z M41.8131313,35.865625 L41.8131313,33.875 L38.0252525,33.875 C37.1835017,33.875 37.1835017,32.65625 38.0252525,32.65625 L41.8131313,32.65625 L41.8131313,30.625 L38.0252525,30.625 C37.1835017,30.625 37.1835017,29.40625 38.0252525,29.40625 L41.8131313,29.40625 L41.8131313,27.375 L38.0252525,27.375 C37.1835017,27.375 37.1835017,26.15625 38.0252525,26.15625 L41.8131313,26.15625 L41.8131313,23.759375 C41.8131313,20.428125 38.9511785,17.70625 35.5,17.70625 C32.0488215,17.70625 29.1868687,20.428125 29.1868687,23.759375 L29.1868687,26.15625 L32.9747475,26.15625 C33.8164983,26.15625 33.8164983,27.375 32.9747475,27.375 L29.1868687,27.375 L29.1868687,29.40625 L32.9747475,29.40625 C33.8164983,29.40625 33.8164983,30.625 32.9747475,30.625 L29.1868687,30.625 L29.1868687,32.65625 L32.9747475,32.65625 C33.8164983,32.65625 33.8164983,33.875 32.9747475,33.875 L29.1868687,33.875 L29.1868687,35.865625 C29.1868687,39.196875 32.0488215,41.91875 35.5,41.91875 C38.9511785,41.91875 41.8131313,39.196875 41.8131313,35.865625 L41.8131313,35.865625 Z" id="Shape" fill="#DF6823"></path>
                        </g>
                    </g>
                </g>
            </g>
        </g>
    </g>
</svg>