<?xml version="1.0" encoding="UTF-8" standalone="no"?>
<svg width="72px" height="72px" viewBox="0 0 72 72" version="1.1" xmlns="http://www.w3.org/2000/svg" xmlns:xlink="http://www.w3.org/1999/xlink" xmlns:sketch="http://www.bohemiancoding.com/sketch/ns">
    <!-- Generator: Sketch 3.3.2 (12043) - http://www.bohemiancoding.com/sketch -->
    <title>Slice 1</title>
    <desc>Created with Sketch.</desc>
    <defs></defs>
    <g id="Page-1" stroke="none" stroke-width="1" fill="none" fill-rule="evenodd" sketch:type="MSPage">
        <g id="support" sketch:type="MSLayerGroup" transform="translate(1.000000, 1.000000)">
            <g id="Page-1" sketch:type="MSShapeGroup">
                <circle id="Oval-3" stroke="#1D2937" fill="#FFFFFF" cx="35" cy="35" r="35"></circle>
                <path d="M49.7344,30.8323 L49.7344,29.7287 C49.7344,21.6071 43.1248,14.9975 35.0032,14.9975 C26.8776,14.9975 20.268,21.6071 20.268,29.7287 L20.268,30.8323 C18.1368,31.0079 15,32.0179 15,34.9963 L15,40.2663 C15,43.5867 18.8948,44.4615 20.9536,44.4615 C21.3304,44.4615 21.6352,44.1567 21.6352,43.7779 L21.6352,34.9963 C21.6352,34.6195 21.3304,34.3147 20.9536,34.3147 C20.5728,34.3147 20.268,34.6195 20.268,34.9963 L20.268,43.0555 C18.9924,42.9227 16.3692,42.3955 16.3692,40.2663 L16.3692,34.9963 C16.3692,32.2131 20.9064,32.1683 20.9532,32.1683 C21.33,32.1683 21.6348,31.8635 21.6348,31.4867 L21.6348,29.7287 C21.6348,22.3611 27.6312,16.3607 35.0028,16.3607 C42.3704,16.3607 48.3664,22.3611 48.3664,29.7287 L48.3664,31.4867 C48.3664,31.8635 48.6712,32.1683 49.0544,32.1683 C49.0936,32.1683 53.6364,32.2015 53.6364,34.9963 L53.6364,40.2663 C53.6364,42.3835 51.0152,42.9147 49.734,43.0515 L49.734,34.9963 C49.734,34.6195 49.4292,34.3147 49.0544,34.3147 C48.6712,34.3147 48.3664,34.6195 48.3664,34.9963 L48.3664,43.7779 C48.3664,46.1339 47.628,51.5167 40.952,51.8603 L40.952,50.8019 C40.952,49.8255 40.3036,48.3643 38.5124,48.3643 L31.4892,48.3643 C29.3132,48.3643 28.1708,50.0323 28.1708,51.6807 C28.1708,53.3295 29.3132,55.0015 31.4892,55.0015 L38.5128,55.0015 C38.8896,55.0015 39.1964,54.6931 39.1964,54.3179 C39.1964,53.9427 38.8896,53.6303 38.5128,53.6303 L31.4892,53.6303 C30.1412,53.6303 29.538,52.6535 29.538,51.6807 C29.538,50.7119 30.1416,49.7315 31.4892,49.7315 L38.5128,49.7315 C39.462,49.7315 39.5792,50.4855 39.5872,50.8019 L39.5872,52.5595 C39.5872,52.9383 39.894,53.2435 40.2708,53.2435 C43.656,53.2435 46.1988,52.1651 47.8356,50.0399 C49.2188,48.2471 49.6368,46.1023 49.7188,44.4303 C51.8516,44.2583 55,43.2547 55,40.2663 L55,34.9963 C55,32.0179 51.8632,31.0079 49.7344,30.8323 L49.7344,30.8323 L49.7344,30.8323 Z" id="Shape" fill="#DE6826"></path>
            </g>
        </g>
    </g>
</svg>