<?xml version="1.0" encoding="UTF-8" standalone="no"?>
<svg width="72px" height="72px" viewBox="0 0 72 72" version="1.1" xmlns="http://www.w3.org/2000/svg" xmlns:xlink="http://www.w3.org/1999/xlink" xmlns:sketch="http://www.bohemiancoding.com/sketch/ns">
    <!-- Generator: Sketch 3.3.2 (12043) - http://www.bohemiancoding.com/sketch -->
    <title>Slice 1</title>
    <desc>Created with Sketch.</desc>
    <defs></defs>
    <g id="Page-1" stroke="none" stroke-width="1" fill="none" fill-rule="evenodd" sketch:type="MSPage">
        <g id="tools" sketch:type="MSLayerGroup" transform="translate(1.000000, 1.000000)">
            <g id="Page-1" sketch:type="MSShapeGroup">
                <circle id="Oval-3" stroke="#1D2937" fill="#FFFFFF" cx="35" cy="35" r="35"></circle>
                <path d="M46.5080068,39.6400695 C45.5755526,39.6400695 44.6875011,39.8176798 43.8438521,40.1284979 L37.1834652,33.5569162 L42.7337876,28.0065938 L46.1083836,31.3811898 C46.1971887,31.469995 46.3303965,31.5143976 46.4636042,31.5143976 C46.5968119,31.5143976 46.7300197,31.469995 46.8188248,31.3811898 C46.9964352,31.2035795 46.9964352,30.8927615 46.8188248,30.6707486 L45.6643578,29.5162815 L53.96764,21.2129993 C55.34412,19.8365193 55.34412,17.5275852 53.96764,16.1511053 C53.3016014,15.4850666 52.4135498,15.0854434 51.436693,15.0854434 C50.4598363,15.0854434 49.5717847,15.440664 48.8613435,16.1067027 L40.5580612,24.4099849 L39.4035942,23.2555179 C39.2259838,23.0779076 38.9151658,23.0779076 38.6931529,23.2555179 C38.5155426,23.4331282 38.5155426,23.7439462 38.6931529,23.9659591 L40.2028406,25.4756468 L42.0233463,27.2961526 L36.473024,32.8464749 L29.7682345,26.2304907 C30.3010655,24.9428159 30.4342732,23.5219334 30.1678577,22.1010508 C29.9014423,20.5469606 29.1465984,19.126078 28.036534,18.0160136 C26.6156514,16.595131 24.661938,15.7958846 22.6194193,15.7958846 C21.5537574,15.7958846 20.4880955,16.0178975 19.5112388,16.4619233 C19.3780311,16.5063259 19.2448233,16.6839362 19.2448233,16.8171439 C19.2004208,16.9947543 19.2892259,17.127962 19.3780311,17.2611697 L22.2641987,20.1473374 L22.2641987,23.2111153 L19.2448233,23.2111153 L16.3586557,20.3249477 C16.225448,20.1917399 16.0922402,20.1473374 15.9146299,20.1917399 C15.7370196,20.2361425 15.6038119,20.3249477 15.5594093,20.502558 C14.4049422,23.344323 15.0709809,26.6301139 17.2467073,28.8058402 C18.6675898,30.2267228 20.6213033,31.0259692 22.6638219,31.0259692 C23.5962761,31.0259692 24.4843277,30.8483589 25.3279766,30.5375408 L32.0771686,37.1979277 L22.8858348,46.4780666 L22.0421858,45.6344176 C21.8645755,45.4568073 21.5537574,45.4568073 21.3317445,45.6344176 L16.3586557,50.6963116 C16.1810454,50.873922 16.1810454,51.18474 16.3586557,51.4067529 L18.6675898,53.715687 C18.756395,53.8044922 18.8896027,53.8488947 19.0228104,53.8488947 C19.1560182,53.8488947 19.2892259,53.8044922 19.3780311,53.715687 L24.3955225,48.6981956 C24.5731328,48.5205853 24.5731328,48.2097672 24.3955225,47.9877543 L23.5962761,47.1885079 L32.7876099,37.9527715 L39.4035942,44.4799506 C38.8707632,45.7676254 38.7375555,47.1885079 39.003971,48.6093904 C39.2703864,50.1634807 40.0252303,51.5843632 41.1352947,52.6944277 C42.5561773,54.1153102 44.5098907,54.9145566 46.5524094,54.9145566 C47.6180713,54.9145566 48.6837332,54.6925437 49.6605899,54.248518 C49.7937976,54.2041154 49.9270054,54.0265051 49.9270054,53.8932973 C49.9714079,53.715687 49.8826028,53.5824793 49.7937976,53.4492715 L46.90763,50.5631039 L46.90763,47.499326 L49.9270054,47.499326 L52.813173,50.3854936 C52.9463807,50.5187013 53.0795885,50.5631039 53.2571988,50.5187013 C53.4348091,50.4742987 53.5680168,50.3854936 53.6124194,50.2078833 C54.811289,47.3217156 54.1896529,44.0359248 51.969524,41.8157959 C50.4598363,40.4393159 48.5505254,39.6400695 46.5080068,39.6400695 L46.5080068,39.6400695 L46.5080068,39.6400695 Z M49.5717847,16.8171439 C50.0602131,16.3287156 50.7262518,16.0623001 51.3922905,16.0623001 C52.1027317,16.0623001 52.7243678,16.3287156 53.2127962,16.8171439 C54.2340555,17.8384033 54.2340555,19.4812987 53.2127962,20.502558 L44.9539165,28.7614377 L41.2685025,25.0760236 L49.5717847,16.8171439 L49.5717847,16.8171439 Z M19.0228104,52.6500251 L17.379915,51.0071297 L21.7313678,46.655677 L22.5306142,47.4549234 L23.3298606,48.2541698 L19.0228104,52.6500251 L19.0228104,52.6500251 Z M52.9019781,49.1422214 L50.4598363,46.7000795 C50.3710311,46.6112744 50.2378234,46.5668718 50.1046157,46.5668718 L46.4192016,46.5668718 C46.1527862,46.5668718 45.9307733,46.7888847 45.9307733,47.0553002 L45.9307733,50.7851168 C45.9307733,50.9183245 45.9751758,51.0515323 46.063981,51.1403374 L48.5505254,53.6268818 C47.8844867,53.8488947 47.218448,53.9376999 46.5524094,53.9376999 C44.7763062,53.9376999 43.0890082,53.2272586 41.845736,51.9839864 C40.8688793,51.0071297 40.2472432,49.8082601 39.9808277,48.4317801 C39.7588148,47.0997028 39.8920225,45.7676254 40.4692561,44.5687558 C40.5580612,44.3911454 40.5136586,44.1691325 40.3804509,44.0359248 L25.7720024,29.6494892 C25.6831973,29.5606841 25.5499895,29.5162815 25.4167818,29.5162815 C25.3723792,29.5162815 25.2835741,29.5162815 25.2391715,29.5606841 C24.3955225,29.9159047 23.5518735,30.093515 22.6638219,30.093515 C20.8877188,30.093515 19.2004208,29.3830738 17.9571486,28.1398016 C16.225448,26.3636984 15.6038119,23.877154 16.2698506,21.5238173 L18.7119924,23.9659591 C18.8007976,24.0547643 18.9340053,24.0991669 19.067213,24.0991669 L22.7526271,24.0991669 C23.0190425,24.0991669 23.2410554,23.877154 23.2410554,23.6107385 L23.2410554,19.8809219 C23.2410554,19.7477141 23.1966529,19.6145064 23.1078477,19.5257013 L20.6213033,17.0391568 C21.287342,16.8171439 21.9533807,16.7283388 22.6194193,16.7283388 C24.3955225,16.7283388 26.0828205,17.43878 27.3260927,18.6820523 C28.3029494,19.658909 28.9245855,20.8577786 29.191001,22.2342586 C29.4130139,23.5663359 29.2798062,24.8984133 28.7025726,26.0972829 C28.6137675,26.2748932 28.6581701,26.4969061 28.7913778,26.6301139 L43.3554237,40.9721469 C43.4886314,41.1053546 43.7106443,41.1497572 43.8882546,41.060952 C44.7319036,40.7057314 45.5755526,40.5281211 46.4636042,40.5281211 C48.2397074,40.5281211 49.9270054,41.2385623 51.1702776,42.4818345 C52.9463807,44.3023403 53.5680168,46.8332873 52.9019781,49.1422214 L52.9019781,49.1422214 L52.9019781,49.1422214 Z" id="Shape" fill="#DE6826"></path>
            </g>
        </g>
    </g>
</svg>