<?xml version="1.0" encoding="UTF-8" standalone="no"?>
<svg width="72px" height="72px" viewBox="0 0 72 72" version="1.1" xmlns="http://www.w3.org/2000/svg" xmlns:xlink="http://www.w3.org/1999/xlink" xmlns:sketch="http://www.bohemiancoding.com/sketch/ns">
    <!-- Generator: Sketch 3.3.2 (12043) - http://www.bohemiancoding.com/sketch -->
    <title>Slice 1</title>
    <desc>Created with Sketch.</desc>
    <defs></defs>
    <g id="Page-1" stroke="none" stroke-width="1" fill="none" fill-rule="evenodd" sketch:type="MSPage">
        <g id="training" sketch:type="MSLayerGroup" transform="translate(1.000000, 1.000000)">
            <g id="Page-1" sketch:type="MSShapeGroup">
                <circle id="Oval-3" stroke="#1D2937" fill="#FFFFFF" cx="35" cy="35" r="35"></circle>
                <path d="M19.1084932,19.510676 C16.548187,19.510676 14.4604986,21.5694862 14.4604986,24.1185228 L14.4604986,26.2555156 C11.9797838,26.3139765 9.9899998,28.3340475 9.9899998,30.7851796 L9.9899998,39.1965073 C9.9899998,41.6469351 11.9790794,43.6472844 14.4604986,43.7261714 L14.4604986,45.8631642 C14.4604986,48.4122008 16.548187,50.4900283 19.1084932,50.4900283 L21.0771467,50.4900283 C23.6374529,50.4900283 25.7258456,48.4122008 25.7258456,45.8631642 L25.7258456,38.4118633 L44.2952848,38.4118633 L44.2952848,45.8624598 C44.2952848,48.4114964 46.3632515,50.489324 48.9228533,50.489324 L50.9119329,50.489324 C53.4722391,50.489324 55.5599275,48.4114964 55.5599275,45.8624598 L55.5599275,43.725467 C58.0209206,43.6472844 60.0100002,41.6469351 60.0100002,39.195803 L60.0100002,30.7844753 C60.0100002,28.3530649 58.0209206,26.3336982 55.5599275,26.2548112 L55.5599275,24.1178184 C55.5599275,21.5687818 53.4722391,19.5099717 50.9119329,19.5099717 L48.9228533,19.5099717 C46.3625471,19.5099717 44.2952848,21.5687818 44.2952848,24.1178184 L44.2952848,31.568415 L25.7251413,31.568415 L25.7251413,24.1178184 C25.7251413,21.5687818 23.6367485,19.5099717 21.0764424,19.5099717 L19.1084932,19.5099717 L19.1084932,19.510676 L19.1084932,19.510676 Z M19.1084932,20.6080507 L21.0771467,20.6080507 C23.047209,20.6080507 24.6221318,22.1569127 24.6221318,24.1178184 L24.6221318,45.8624598 C24.6221318,47.8233656 23.047209,49.3919493 21.0771467,49.3919493 L19.1084932,49.3919493 C17.1384309,49.3919493 15.563508,47.8233656 15.563508,45.8624598 L15.563508,24.1178184 C15.5628037,22.157617 17.1384309,20.6080507 19.1084932,20.6080507 L19.1084932,20.6080507 L19.1084932,20.6080507 Z M48.9228533,20.6080507 L50.9119329,20.6080507 C52.8812909,20.6080507 54.4562137,22.1569127 54.4562137,24.1178184 L54.4562137,45.8624598 C54.4562137,47.8233656 52.8812909,49.3919493 50.9119329,49.3919493 L48.9228533,49.3919493 C46.9534954,49.3919493 45.3982943,47.8233656 45.3982943,45.8624598 L45.3982943,24.1178184 C45.3982943,22.157617 46.9534954,20.6080507 48.9228533,20.6080507 L48.9228533,20.6080507 L48.9228533,20.6080507 Z M14.4604986,27.3923338 L14.4604986,42.5879445 C12.5693233,42.5097618 11.0937136,41.0580999 11.0937136,39.195803 L11.0937136,30.7844753 C11.0937136,28.9411957 12.5693233,27.4712208 14.4604986,27.3923338 L14.4604986,27.3923338 L14.4604986,27.3923338 Z M55.5592232,27.3923338 C57.429268,27.4705164 58.9069908,28.9411957 58.9069908,30.7844753 L58.9069908,39.195803 C58.9069908,41.0390825 57.429268,42.5097618 55.5592232,42.5879445 L55.5592232,27.3923338 L55.5592232,27.3923338 Z M25.7251413,32.6862158 L44.2945805,32.6862158 L44.2945805,37.3137842 L25.7251413,37.3137842 L25.7251413,32.6862158 L25.7251413,32.6862158 Z" id="Shape" fill="#DE6826"></path>
            </g>
        </g>
    </g>
</svg>