<?xml version="1.0" encoding="UTF-8" standalone="no"?>
<svg width="72px" height="72px" viewBox="0 0 72 72" version="1.1" xmlns="http://www.w3.org/2000/svg" xmlns:xlink="http://www.w3.org/1999/xlink" xmlns:sketch="http://www.bohemiancoding.com/sketch/ns">
    <!-- Generator: Sketch 3.3.1 (12005) - http://www.bohemiancoding.com/sketch -->
    <title>Oval 3 + Shape 2</title>
    <desc>Created with Sketch.</desc>
    <defs></defs>
    <g id="02-Services" stroke="none" stroke-width="1" fill="none" fill-rule="evenodd" sketch:type="MSPage">
        <g id="02b-Meteor-Dev" sketch:type="MSArtboardGroup" transform="translate(-129.000000, -2631.000000)">
            <g id="Leadership" sketch:type="MSLayerGroup" transform="translate(130.000000, 1895.000000)">
                <g id="Group" transform="translate(0.000000, 185.000000)" sketch:type="MSShapeGroup">
                    <g id="Meteoric-+-Shape-+-Shape-+-Shape-+-Today’s-mobile-users" transform="translate(0.000000, 543.000000)">
                        <g id="Oval-3-+-Shape-2" transform="translate(0.000000, 9.000000)">
                            <circle id="Oval-3" stroke="#1D2937" stroke-width="2" fill-opacity="0.149999991" fill="#FFFFFF" cx="35" cy="35" r="35"></circle>
                            <path d="M51.2765957,18 L25.2340426,18 C24.8347234,18 24.5106383,18.3240851 24.5106383,18.7234043 L24.5106383,24.6914894 L20.3510638,24.6914894 C19.0547234,24.6914894 18,25.7462128 18,27.0425532 L18,48.0212766 C18,50.215 19.785,52 21.9787234,52 L48.0212766,52 C50.215,52 52,50.215 52,48.0212766 L52,18.7234043 C52,18.3240851 51.6759149,18 51.2765957,18 L51.2765957,18 Z M24.5106383,48.0212766 C24.5106383,49.4170851 23.3748936,50.5531915 21.9787234,50.5531915 C20.5825532,50.5531915 19.4468085,49.4170851 19.4468085,48.0212766 L19.4468085,27.0425532 C19.4468085,26.543766 19.8526383,26.1382979 20.3510638,26.1382979 C20.8498511,26.1382979 21.2553191,26.5441277 21.2553191,27.0425532 L21.2553191,44.7655957 C21.2553191,45.1649149 21.5794043,45.489 21.9787234,45.489 C22.3780426,45.489 22.7021277,45.1649149 22.7021277,44.7655957 L22.7021277,27.0429149 C22.7021277,26.7224468 22.6377447,26.4171702 22.5212766,26.1386596 L24.5106383,26.1386596 L24.5106383,48.0212766 L24.5106383,48.0212766 Z M50.5531915,48.0212766 C50.5531915,49.4170851 49.4170851,50.5531915 48.0212766,50.5531915 L25.0455957,50.5531915 C25.6149149,49.8648723 25.9574468,48.9823191 25.9574468,48.0212766 L25.9574468,25.4148936 L25.9574468,19.4468085 L50.5531915,19.4468085 L50.5531915,48.0212766 L50.5531915,48.0212766 Z M27.7659574,22.1595745 C27.7659574,21.7602553 28.0900426,21.4361702 28.4893617,21.4361702 L48.0212766,21.4361702 C48.4205957,21.4361702 48.7446809,21.7602553 48.7446809,22.1595745 C48.7446809,22.5588936 48.4205957,22.8829787 48.0212766,22.8829787 L28.4893617,22.8829787 C28.0900426,22.8829787 27.7659574,22.5592553 27.7659574,22.1595745 L27.7659574,22.1595745 Z M27.7659574,25.4076596 C27.7659574,25.0083404 28.0900426,24.6842553 28.4893617,24.6842553 L48.0212766,24.6842553 C48.4205957,24.6842553 48.7446809,25.0083404 48.7446809,25.4076596 C48.7446809,25.8069787 48.4205957,26.1310638 48.0212766,26.1310638 L28.4893617,26.1310638 C28.0900426,26.1310638 27.7659574,25.8073404 27.7659574,25.4076596 L27.7659574,25.4076596 Z M48.0212766,29.363234 L39.8829787,29.363234 C39.4836596,29.363234 39.1595745,29.6873191 39.1595745,30.0866383 L39.1595745,36.6092128 C39.1595745,37.0085319 39.4836596,37.332617 39.8829787,37.332617 L48.0212766,37.332617 C48.4205957,37.332617 48.7446809,37.0085319 48.7446809,36.6092128 L48.7446809,30.0866383 C48.7446809,29.6873191 48.4205957,29.363234 48.0212766,29.363234 L48.0212766,29.363234 Z M47.2978723,35.8858085 L40.606383,35.8858085 L40.606383,30.8100426 L47.2978723,30.8100426 L47.2978723,35.8858085 L47.2978723,35.8858085 Z M27.7659574,30.0866383 C27.7659574,29.6873191 28.0900426,29.363234 28.4893617,29.363234 L36.6276596,29.363234 C37.0269787,29.363234 37.3510638,29.6873191 37.3510638,30.0866383 C37.3510638,30.4859574 37.0269787,30.8100426 36.6276596,30.8100426 L28.4893617,30.8100426 C28.0900426,30.8100426 27.7659574,30.4863191 27.7659574,30.0866383 L27.7659574,30.0866383 Z M27.7659574,33.3477447 C27.7659574,32.9484255 28.0900426,32.6243404 28.4893617,32.6243404 L36.6276596,32.6243404 C37.0269787,32.6243404 37.3510638,32.9484255 37.3510638,33.3477447 C37.3510638,33.7470638 37.0269787,34.0711489 36.6276596,34.0711489 L28.4893617,34.0711489 C28.0900426,34.0711489 27.7659574,33.7474255 27.7659574,33.3477447 L27.7659574,33.3477447 Z M27.7659574,36.6092128 C27.7659574,36.2098936 28.0900426,35.8858085 28.4893617,35.8858085 L36.6276596,35.8858085 C37.0269787,35.8858085 37.3510638,36.2098936 37.3510638,36.6092128 C37.3510638,37.0085319 37.0269787,37.332617 36.6276596,37.332617 L28.4893617,37.332617 C28.0900426,37.332617 27.7659574,37.0088936 27.7659574,36.6092128 L27.7659574,36.6092128 Z M48.7446809,39.8710426 C48.7446809,40.2703617 48.4205957,40.5944468 48.0212766,40.5944468 L39.8829787,40.5944468 C39.4836596,40.5944468 39.1595745,40.2703617 39.1595745,39.8710426 C39.1595745,39.4717234 39.4836596,39.1476383 39.8829787,39.1476383 L48.0212766,39.1476383 C48.4205957,39.1476383 48.7446809,39.4717234 48.7446809,39.8710426 L48.7446809,39.8710426 Z M27.7659574,39.8710426 C27.7659574,39.4717234 28.0900426,39.1476383 28.4893617,39.1476383 L36.6276596,39.1476383 C37.0269787,39.1476383 37.3510638,39.4717234 37.3510638,39.8710426 C37.3510638,40.2703617 37.0269787,40.5944468 36.6276596,40.5944468 L28.4893617,40.5944468 C28.0900426,40.5944468 27.7659574,40.2707234 27.7659574,39.8710426 L27.7659574,39.8710426 Z M48.7446809,43.1325106 C48.7446809,43.5318298 48.4205957,43.8559149 48.0212766,43.8559149 L39.8829787,43.8559149 C39.4836596,43.8559149 39.1595745,43.5318298 39.1595745,43.1325106 C39.1595745,42.7331915 39.4836596,42.4091064 39.8829787,42.4091064 L48.0212766,42.4091064 C48.4205957,42.4091064 48.7446809,42.7328298 48.7446809,43.1325106 L48.7446809,43.1325106 Z M27.7659574,43.1325106 C27.7659574,42.7331915 28.0900426,42.4091064 28.4893617,42.4091064 L36.6276596,42.4091064 C37.0269787,42.4091064 37.3510638,42.7331915 37.3510638,43.1325106 C37.3510638,43.5318298 37.0269787,43.8559149 36.6276596,43.8559149 L28.4893617,43.8559149 C28.0900426,43.8559149 27.7659574,43.5318298 27.7659574,43.1325106 L27.7659574,43.1325106 Z M48.7446809,46.393617 C48.7446809,46.7929362 48.4205957,47.1170213 48.0212766,47.1170213 L39.8829787,47.1170213 C39.4836596,47.1170213 39.1595745,46.7929362 39.1595745,46.393617 C39.1595745,45.9942979 39.4836596,45.6702128 39.8829787,45.6702128 L48.0212766,45.6702128 C48.4205957,45.6702128 48.7446809,45.9942979 48.7446809,46.393617 L48.7446809,46.393617 Z M27.7659574,46.393617 C27.7659574,45.9942979 28.0900426,45.6702128 28.4893617,45.6702128 L36.6276596,45.6702128 C37.0269787,45.6702128 37.3510638,45.9942979 37.3510638,46.393617 C37.3510638,46.7929362 37.0269787,47.1170213 36.6276596,47.1170213 L28.4893617,47.1170213 C28.0900426,47.1170213 27.7659574,46.7932979 27.7659574,46.393617 L27.7659574,46.393617 Z" id="Shape-2" fill="#DF6823"></path>
                        </g>
                    </g>
                </g>
            </g>
        </g>
    </g>
</svg>